<?xml version="1.0" encoding="UTF-8"?>
<svg version="1.1" viewBox="0 0 2048 1146" width="1280" height="1280" xmlns="http://www.w3.org/2000/svg">
<path transform="translate(32,288)" d="m0 0h1962l2 3v473l-3 2-1859 1h-101l-2-1-1-29v-339l1-109z" fill="#FCFCFC"/>
<path transform="translate(1789,410)" d="m0 0h43l6 3-5 5-41 24-15 10-14 11-16 15-18 18-9 11-10 13-10 15-10 18-9 20-4 13-3 16-1 8v21l3 14 6 15 8 13 9 8 16 9 9 5 2 3-7 3-40 9-19 3-31 2-23-2-15-4-16-8-11-8-13-13-7-11-5-12-3-14v-17l3-19 6-21 11-24 9-16 12-19 8-10 18-22 5-5 13-12 14-11 18-13 21-12 19-9 26-10 21-6 23-4z" fill="#DD176D"/>
<path transform="translate(1863,354)" d="m0 0h26l18 2 15 4 12 6 9 7 7 8 7 14 5 15 7 14 3 8 1 7v12l-4 17-6 17-10 23-9 17-10 15-9 12-9 11-12 14-24 24-11 9-16 13-18 13-17 11-24 14-25 12-15 5-11-1-13-4-14-9-7-7-9-13-4-12-1-7v-21l3-22 4-15 5-11 9-15 9-11 7-3 8 7 11 11 14 8 13 5 9 2 16 1 16-2 18-6 18-8 18-10 14-10 14-12 14-13 9-11 12-17 7-12 1-16-12 17-11 14-14 15-11 9-6 3h-2v-35l-1-18-4-14-5-10-9-12-10-8-13-7-12-3-16-2h-37l-23 3-36 7-9 2-4-1 39-19 28-12 28-9 27-6 20-3z" fill="#BCDAF1"/>
<path transform="translate(1863,354)" d="m0 0h26l18 2 15 4 12 6 9 7 7 8 7 14 1 7-3 19-5 12-10 17-12 16-8 10-12 13-12 10-6 3h-2v-35l-1-18-4-14-5-10-9-12-10-8-13-7-12-3-16-2h-37l-23 3-36 7-9 2-4-1 39-19 28-12 28-9 27-6 20-3z" fill="#A8A9AA"/>
<path transform="translate(690,357)" d="m0 0h23l5 5 8 13 8 15 8 16 12 25 4 6 2 1v-80l2-1h14l12 1 1 2 1 11 1 23v92l-1 17h-25l-5-2-6-8-9-15-15-27-8-16-9-15-2-1 1 48-2 35-1 1-26-1-2-8-1-11v-119l1-6z" fill="#DD176D"/>
<path transform="translate(1206,359)" d="m0 0h29l13 2 9 5 9 9 5 10 3 11v13l-4 6-9 6-4 2 3 14 13 40 5 18v5h-33l-7-28-6-19-3-6-5-4-7-1-4 2v57h-33v-140l3-1z" fill="#A8A9AA"/>
<path transform="translate(473,354)" d="m0 0h33l11 2 5 3 2 4-2 10-3 9-5 3-7-1-8-2h-18l-11 4-9 6-8 11-4 10-2 12 1 13 3 12 8 15 8 9 12 5h10l4-2 2-14-1-11-4-6-13-7-4-8-1-6 2-6 2-1 50-1 2 1 1 8v50l-2 15-3 8-2 3-11 3-17 2h-25l-16-4-11-6-12-11-9-12-5-15-2-13-1-18 2-19 4-14 8-14 13-13 13-8 9-4z" fill="#DD176D"/>
<path transform="translate(585,357)" d="m0 0h32l3 3 6 15 11 39 12 44 7 26 3 12v7h-20l-14-1-2-2-5-24-4-10-5-2h-17l-7 2-3 5-6 19-1 9-1 2-16 1h-15l-2-1 1-8 11-43 10-35 11-38 6-19z" fill="#DD176D"/>
<path transform="translate(896,581)" d="m0 0h11l9 2 10 5 9 10 7 12 4 12 1 1 2 17v16l-6 18-7 11-7 7-13 8-10 4h-16l-10-4-11-7-9-9-6-10-5-14-1-6v-25l3-9 5-12 7-11 7-6 7-5 13-4z" fill="#79BBE9"/>
<path transform="translate(1103,581)" d="m0 0 11 1 10 3 8 6 8 9 5 8 3 9 2 11 2 15v9l-1 8-4 10-6 11-8 9-14 10-6 3-5 1h-14l-9-3-10-6-8-7-7-10-5-9-3-11-1-7v-18l6-20 7-12 8-8 11-7 8-3z" fill="#79BBE8"/>
<path transform="translate(315,357)" d="m0 0h82l1 1-1 23-3 4h-45v23l1 2 44 1 1 1v13l-1 12-3 2h-35l-7 1 1 32 3 2 46 1 1 1 2 19v6l-1 1h-84l-2-7-1-19v-118z" fill="#DD176D"/>
<path transform="translate(108,357)" d="m0 0h82l-2 28-46 1-1 24 45 1 1 1-1 27-17 1h-10l-14 1-3 3-1 30 50 1v26l-13 1h-68l-3-3v-131z" fill="#DD176D"/>
<path transform="translate(1392,357)" d="m0 0h15l-5 25-8 30-13 43-12 36-3 10h-38l-9-29-10-35-14-52-5-22v-4l5-1h27l4 9 10 36 11 43 2 6 3-7 10-35 14-50 1-2z" fill="#A8A9AA"/>
<path transform="translate(1424,358)" d="m0 0h79l1 2-1 24h-48l1 27 12 1 33 1v25l-45 1v36l43 1 7 2v23l-25 1h-58l-1-1v-58l1-72z" fill="#A8A9AA"/>
<path transform="translate(1075,359)" d="m0 0h80v24h-48l1 28 5 1 40 1v23l-1 1-44 1 1 36 1 1 46 1 1 9v16l-53 1h-26l-2-1z" fill="#A8A9AA"/>
<path transform="translate(1e3 356)" d="m0 0h20l21 2 1 1v24l-7-1-16-3h-19l-6 2-2 4v9l3 6 10 8 11 7 14 10 12 11 6 8 3 10v10l-2 10-5 10-9 10-9 6-12 5-5 1h-23l-25-5v-17l1-10h7l23 5h11l7-3 5-4 3-6v-6l-7-8-15-10-11-7-12-9-8-8-4-8-1-5v-11l2-12 5-10 5-5 9-6 11-4z" fill="#A8A9AA"/>
<path transform="translate(744,579)" d="m0 0h10l6 3 6 9 13 30 11 22 1 3h2l4 6 3 1 1-17 1-54 1-1h20l1 1v64l2 46v10l-3 2h-12l-9-2-6-5-13-23-13-27-8-16-5-5-3-10 1 37 2 37 1 12-1 2h-21l-1-1v-120l2-2z" fill="#7ABCE9"/>
<path transform="translate(805,357)" d="m0 0h100l3 1 1 3v17l-3 5-4 3-27 1-1 1-1 66-1 43-1 6h-12l-19-1-2-1v-113l-2-1-24-1-9-2v-9l1-17z" fill="#DD176D"/>
<path transform="translate(619,580)" d="m0 0h25l1 2v49l19 1 14 3 2-8 2-46 3-1h20l2 2v122h-23l-1-1-2-40-1-11-1-1h-33l-1 51-3 2h-23l-1-1v-122z" fill="#7DBDE9"/>
<path transform="translate(212,357)" d="m0 0h32l1 10v103l2 4 46 1 1 3 1 11v12l-2 1h-80l-2-4-1-44v-73l1-23z" fill="#DD176D"/>
<path transform="translate(1222,582)" d="m0 0h24l7 2 3 4 2 7v10l-2 2h-6l-7-3-6-1h-10l-11 2-10 6-6 7-5 11-1 4v16l4 18 5 9 6 5 11 5h12l6-4 3-5-1-13-2-6-11-4-4-4-3-7 1-5 5-2 25-2h7l4 4 1 2v31l-1 14-3 9-5 5-5 3-9 2h-22l-15-4-11-6-10-10-8-14-4-14-1-8v-15l2-9 6-14 7-9 10-9 14-7z" fill="#7BBCE9"/>
<path transform="translate(486,579)" d="m0 0 10 1 2 2-1 15-2 4-2 1-12 1-26 1v11l1 18 33-1 2 1 1 3v13l-1 1h-25l-9 1v30l9 3h31l2 5v13l-4 1-26 1h-35l-6-1-1-2v-119l2-1 14-1z" fill="#7DBDE9"/>
<path transform="translate(1355,581)" d="m0 0 53 1 2 2v14l-2 5-15-1h-21l-3 3v26l37 1 2 8v9l-1 1-35 1-3 1v30l5 2h35l2 3 1 7v8l-7 2h-58l-6-2-1-11v-105l1-3 2-1z" fill="#7CBDE9"/>
<path transform="translate(1466,582)" d="m0 0h16l12 2 3 2v15l-1 3-4 3-5-1-10-5-3-1h-10l-6 2v2h-2l-1 8-4-1-1 5 4 4 10 6 21 10 11 8 7 10 2 7v7l-3 9-6 11-10 9-11 5-5 1h-23l-13-3-5-5-1-14 2-5h6l8 8 2 1h17l8-4 4-5-1-9-3-7-13-7-18-11-5-4-6-12-1-4v-16l4-7 8-8 14-7z" fill="#7CBDE9"/>
<path transform="translate(570,581)" d="m0 0h20l5 2 4 6v12l-1 2h-10l-16-1-10 2-8 4-6 7-5 10-3 9v23l3 10 4 6 7 6 12 5 3 1h11l16-4 2 4v11l-2 4-5 2-7 1h-25l-16-4-10-6-8-9-6-12-4-13-1-7v-19l2-10 6-15 6-9 5-5 7-6 11-5z" fill="#7CBDE9"/>
<path transform="translate(395,580)" d="m0 0h16l2 3 1 16-1 2-3 1-27 2v98l-7 2h-20l-1-1v-96l-1-4-5-2h-15l-5-5-2-5v-7l6-2 17-1z" fill="#7DBDE9"/>
<path transform="translate(1097,600)" d="m0 0h11l10 5 6 8 3 7 3 15v20l-2 9-6 11-9 9-5 3h-9l-12-6-5-6-5-12-2-12v-20l4-13 7-11 8-6z" fill="#FDFDFD"/>
<path transform="translate(892,600)" d="m0 0h12l10 5 8 11 3 11 1 7v19l-2 12-6 11-9 9-6 3-11-2-8-5-6-7-4-9-3-16v-11l2-12 5-12 8-10z" fill="#FDFDFD"/>
<path transform="translate(978,581)" d="m0 0h15l3 1 1 105h16l17-2h7l3 8v6l-7 2-27 2h-36l1-28v-93z" fill="#77BAE8"/>
<path transform="translate(1297,581)" d="m0 0h15l2 1-1 121-2 1h-17l-7-2-1-1 1-119z" fill="#7CBDE9"/>
<path transform="translate(685,580)" d="m0 0h20l2 2v122h-23l-1-1-2-40v-35l1-47z" fill="#7CBDE9"/>
<path transform="translate(1213,382)" d="m0 0h12l10 2 4 2 2 5 1 16-3 5-5 4-5 2h-14l-3-2-1-4v-29z" fill="#FCFCFC"/>
<path transform="translate(599,406)" d="m0 0 4 4 4 14 2 14-2 2h-16l-2-2 1-10 5-17z" fill="#FBFBFB"/>
<path transform="translate(802,582)" d="m0 0h1l1 77-2 6h-2l-8-16-1-3h2l4 6 3 1 1-17z" fill="#BCDAF1"/>
<path transform="translate(1451,604)" d="m0 0h5l-1 8-4-1-1 5 4 4 6 4-2 1-8-5-5-5 1-7z" fill="#BCDAF1"/>
<path transform="translate(681,604)" d="m0 0h1v24l-1 24-7-2 3-2v-8l-2-5h3l2-8z" fill="#BCDAF1"/>
<path transform="translate(1475,667)" d="m0 0 2 3v7l-5 7-9 4h-14l-3-2 17-1 8-4 4-5z" fill="#BCDAF1"/>
<path transform="translate(752,608)" d="m0 0 2 1 9 20-1 2-5-5-3-10-1 10h-1z" fill="#BCDAF1"/>
</svg>
